<?xml version="1.0"?>
<svg xmlns="http://www.w3.org/2000/svg" viewBox="0 0 64 64" width="512px" height="512px"><g><g id="Bag"><path d="M61.147,44.9a3.993,3.993,0,0,0-5.457-1.469l-9.751,5.629a3.966,3.966,0,0,0-2.259-1.629l-14.92-4a7,7,0,0,0-3.51-.03L20,44.719V43a1,1,0,0,0-1-1H11a1,1,0,0,0-1,1v1H3a1,1,0,0,0-1,1V59a1,1,0,0,0,1,1h7v1a1,1,0,0,0,1,1h8a1,1,0,0,0,1-1V59.618l1.286.643A7.028,7.028,0,0,0,24.417,61H39.393a7,7,0,0,0,3.5-.938l16.8-9.7A4.01,4.01,0,0,0,61.147,44.9ZM4,58V46h6V58Zm14,2H12V44h6ZM58.69,48.634l-16.8,9.7a5,5,0,0,1-2.5.67H24.417a5.036,5.036,0,0,1-2.237-.528L20,57.382v-10.6l5.735-1.434a5.009,5.009,0,0,1,2.507.021l14.92,4a2,2,0,1,1-1.036,3.863L30.2,50.034a1,1,0,0,0-.517,1.932l11.925,3.2a4.038,4.038,0,0,0,1.042.138,3.952,3.952,0,0,0,3.965-4.317l10.072-5.815a2.035,2.035,0,0,1,2.726.732A2.009,2.009,0,0,1,58.69,48.634Z" data-original="#000000" class="active-path" data-old_color="#000000" fill="#F18024"/><path d="M23,41H53a5.006,5.006,0,0,0,5-5V12a1,1,0,0,0-1-1H47a9,9,0,0,0-18,0H23a1,1,0,0,0-1,1V40A1,1,0,0,0,23,41Zm33-5a3,3,0,0,1-3,3h-.026A4.948,4.948,0,0,0,54,36V13h2ZM38,4a7.008,7.008,0,0,1,7,7H31A7.008,7.008,0,0,1,38,4ZM24,13h5v4H28a1,1,0,0,0,0,2h4a1,1,0,0,0,0-2H31V13H45v4H44a1,1,0,0,0,0,2h4a1,1,0,0,0,0-2H47V13h5V36a3,3,0,0,1-3,3H24Z" data-original="#000000" class="active-path" data-old_color="#000000" fill="#F18024"/></g></g> </svg>
