<?xml version="1.0"?>
<svg xmlns="http://www.w3.org/2000/svg" id="Capa_1" enable-background="new 0 0 488.455 488.455" height="512px" viewBox="0 0 488.455 488.455" width="512px"><g><path d="m244.236 137.374c-67.335 0-122.118 54.783-122.118 122.118s54.784 122.118 122.118 122.118 122.118-54.783 122.118-122.118-54.783-122.118-122.118-122.118zm0 213.706c-50.505 0-91.588-41.083-91.588-91.588s41.083-91.588 91.588-91.588 91.588 41.083 91.588 91.588-41.083 91.588-91.588 91.588z" data-original="#000000" class="active-path" data-old_color="#000000" fill="#FFFFFF"/><path d="m488.292 137.292c-.015-25.214-20.572-45.733-45.794-45.733h-66.888l-26.326-52.603c-2.594-5.171-7.871-8.434-13.655-8.434h-183.176c-5.784 0-11.076 3.263-13.655 8.434l-26.296 52.618-66.782.089c-25.208.045-45.72 20.58-45.72 45.779v274.714c0 25.244 20.542 45.778 45.794 45.778h396.867c25.252 0 45.794-20.55 45.794-45.808zm-45.63 290.122h-396.867c-8.422 0-15.265-6.84-15.265-15.259v-274.714c0-8.405 6.842-15.244 15.235-15.259l76.204-.104c5.784-.015 11.061-3.278 13.64-8.434l26.281-52.604h164.304l26.326 52.603c2.594 5.171 7.871 8.434 13.655 8.434h76.324c8.408 0 15.444 6.84 15.444 15.244v274.819c-.001 8.419-6.859 15.274-15.281 15.274z" data-original="#000000" class="active-path" data-old_color="#000000" fill="#FFFFFF"/></g> </svg>
