<?xml version="1.0"?>
<svg xmlns="http://www.w3.org/2000/svg" xmlns:xlink="http://www.w3.org/1999/xlink" version="1.1" viewBox="0 0 489.6 489.6" enable-background="new 0 0 489.6 489.6" width="512px" height="512px"><g><g>
    <g>
      <path d="m365.6,144.8c-12.3,0-24.2,1.8-35.4,5.2v-114.6h-96.8l7.2-35.4h-150l6.8,35.4h-97.4v454.2h330.2v-102c11.2,3.4 23.1,5.2 35.4,5.2 68.8,0 124-56.3 124-124 5.68434e-14-67.8-55.2-124-124-124zm-150-124l-10.4,50h-79.2l-9.4-50h99zm93.9,448h-0.1-288.6v-412.5h80.7l6.8,35.4h113.5l7.2-35.4h80.3v102.1c-27.3,14-48.7,37.9-59.7,66.7h-200.6v20.7h194.8c-1.4,7.4-2.2,15.1-2.2,22.9 0,13.4 2.2,26.4 6.2,38.5h-198.8v20.8h208c12,21.8 30.3,39.7 52.5,51v89.8zm56.1-98c-57.3,0-103.1-46.9-103.1-103.1s46.9-103.1 103.1-103.1c57.3,0 103.1,46.9 103.1,103.1s-45.8,103.1-103.1,103.1z" data-original="#000000" class="active-path" data-old_color="#000000" fill="#212121"/>
      <rect width="233.3" x="49" y="143.8" height="20.8" data-original="#000000" class="active-path" data-old_color="#000000" fill="#212121"/>
      <rect width="233.3" x="49" y="388.6" height="20.8" data-original="#000000" class="active-path" data-old_color="#000000" fill="#212121"/>
      <polygon points="418.3,230.2 403.6,215.4 366,253 328.4,215.4 313.7,230.2 351.3,267.7 313,306 327.7,320.8 366,282.5     404.3,320.8 419,306 380.7,267.7   " data-original="#000000" class="active-path" data-old_color="#000000" fill="#212121"/>
    </g>
  </g></g> </svg>
