<?xml version="1.0"?>
<svg xmlns="http://www.w3.org/2000/svg" id="Capa_1" enable-background="new 0 0 512.146 512.146" height="512px" viewBox="0 0 512.146 512.146" width="512px"><g><g><g><g><g><g><path d="m444.958 109.242c4.143 0 7.5-3.358 7.5-7.5v-30.253c0-.022-.003-.044-.003-.066 0-.044-.005-.088-.006-.132-.047-1.693-.775-3.547-1.909-4.811-.11-.123-57.421-63.989-57.421-63.989-1.411-1.572-3.483-2.491-5.581-2.491-.097 0-298.327 0-298.327 0-16.279 0-29.523 13.244-29.523 29.523v453.1c0 16.279 13.244 29.523 29.523 29.523h333.725c16.278 0 29.522-13.244 29.522-29.523v-345.879c0-4.142-3.357-7.5-7.5-7.5s-7.5 3.358-7.5 7.5v345.879c0 8.008-6.515 14.523-14.522 14.523h-333.725c-8.008 0-14.523-6.515-14.523-14.523v-453.1c0-8.008 6.516-14.523 14.523-14.523h290.826v49.577c0 7.947 6.465 14.412 14.412 14.412h43.009v22.752c0 4.143 3.358 7.501 7.5 7.501zm-49.92-45.253v-36.902l33.114 36.902z" data-original="#000000" class="active-path" data-old_color="#000000" fill="#212121"/><path d="m280.959 85.522h67.299c4.143 0 7.5-3.358 7.5-7.5s-3.357-7.5-7.5-7.5h-67.299c-4.143 0-7.5 3.358-7.5 7.5s3.358 7.5 7.5 7.5z" data-original="#000000" class="active-path" data-old_color="#000000" fill="#212121"/><path d="m402.467 106.838h-121.508c-4.143 0-7.5 3.358-7.5 7.5s3.357 7.5 7.5 7.5h121.508c4.143 0 7.5-3.358 7.5-7.5s-3.357-7.5-7.5-7.5z" data-original="#000000" class="active-path" data-old_color="#000000" fill="#212121"/><path d="m402.467 143.154h-121.508c-4.143 0-7.5 3.358-7.5 7.5s3.357 7.5 7.5 7.5h121.508c4.143 0 7.5-3.358 7.5-7.5s-3.357-7.5-7.5-7.5z" data-original="#000000" class="active-path" data-old_color="#000000" fill="#212121"/><path d="m250 74.758c-4.297-4.296-10.009-6.663-16.085-6.663s-11.788 2.366-16.085 6.663l-28.696 28.696v-27.636c0-8.045-6.546-14.591-14.592-14.591h-57.771c-8.045 0-14.591 6.545-14.591 14.591v57.772c0 8.046 6.546 14.591 14.591 14.591h40.317l14.631 14.631c3.087 3.086 7.142 4.629 11.196 4.629s8.109-1.543 11.196-4.63l55.889-55.884c8.869-8.869 8.869-23.3 0-32.169zm-107.479 58.424h-25.341v-56.954h56.954v25.121c-3.836-2.758-8.412-4.267-13.23-4.267-6.076 0-11.788 2.366-16.085 6.663-8.011 8.01-8.76 20.547-2.298 29.437zm96.873-36.861-55.888 55.885c-.326.326-.856.326-1.181 0l-26.899-26.9c-3.021-3.021-3.021-7.936 0-10.956 1.463-1.463 3.408-2.269 5.478-2.269s4.015.806 5.479 2.269l10.606 10.606c1.582 1.585 3.688 2.458 5.928 2.458 2.236 0 4.339-.87 5.926-2.454l39.596-39.595c1.463-1.463 3.408-2.269 5.478-2.269s4.015.806 5.478 2.269c3.019 3.02 3.019 7.935-.001 10.956z" data-original="#000000" class="active-path" data-old_color="#000000" fill="#212121"/><path d="m280.959 227.257h67.299c4.143 0 7.5-3.358 7.5-7.5s-3.357-7.5-7.5-7.5h-67.299c-4.143 0-7.5 3.358-7.5 7.5s3.358 7.5 7.5 7.5z" data-original="#000000" class="active-path" data-old_color="#000000" fill="#212121"/><path d="m402.467 248.573h-121.508c-4.143 0-7.5 3.358-7.5 7.5s3.357 7.5 7.5 7.5h121.508c4.143 0 7.5-3.358 7.5-7.5s-3.357-7.5-7.5-7.5z" data-original="#000000" class="active-path" data-old_color="#000000" fill="#212121"/><path d="m402.467 284.89h-121.508c-4.143 0-7.5 3.358-7.5 7.5s3.357 7.5 7.5 7.5h121.508c4.143 0 7.5-3.358 7.5-7.5s-3.357-7.5-7.5-7.5z" data-original="#000000" class="active-path" data-old_color="#000000" fill="#212121"/><path d="m250 216.493c-4.297-4.296-10.009-6.663-16.085-6.663s-11.788 2.366-16.085 6.663l-28.696 28.697v-27.637c0-8.046-6.546-14.591-14.592-14.591h-57.771c-8.045 0-14.591 6.545-14.591 14.591v57.772c0 8.046 6.546 14.591 14.591 14.591h40.317l14.63 14.63c3.088 3.087 7.142 4.631 11.197 4.63 4.055 0 8.11-1.543 11.196-4.63l55.889-55.883c8.869-8.87 8.869-23.301 0-32.17zm-107.479 58.424h-25.341v-56.955h56.954v25.128c-8.882-6.366-21.341-5.586-29.315 2.388-8.011 8.012-8.76 20.55-2.298 29.439zm96.873-36.861-55.888 55.885c-.326.325-.856.325-1.181 0l-26.899-26.899c-3.021-3.021-3.021-7.936 0-10.957 1.463-1.463 3.408-2.269 5.478-2.269s4.015.806 5.478 2.269l10.607 10.606c1.582 1.585 3.688 2.458 5.928 2.458 2.236 0 4.339-.87 5.926-2.454l39.596-39.596c1.463-1.463 3.408-2.269 5.478-2.269s4.015.806 5.478 2.269c3.019 3.022 3.019 7.937-.001 10.957z" data-original="#000000" class="active-path" data-old_color="#000000" fill="#212121"/><path d="m280.959 368.992h67.299c4.143 0 7.5-3.358 7.5-7.5s-3.357-7.5-7.5-7.5h-67.299c-4.143 0-7.5 3.358-7.5 7.5s3.358 7.5 7.5 7.5z" data-original="#000000" class="active-path" data-old_color="#000000" fill="#212121"/><path d="m402.467 390.309h-121.508c-4.143 0-7.5 3.358-7.5 7.5s3.357 7.5 7.5 7.5h121.508c4.143 0 7.5-3.358 7.5-7.5s-3.357-7.5-7.5-7.5z" data-original="#000000" class="active-path" data-old_color="#000000" fill="#212121"/><path d="m402.467 426.625h-121.508c-4.143 0-7.5 3.358-7.5 7.5s3.357 7.5 7.5 7.5h121.508c4.143 0 7.5-3.358 7.5-7.5s-3.357-7.5-7.5-7.5z" data-original="#000000" class="active-path" data-old_color="#000000" fill="#212121"/><path d="m122.158 359.698c4.143 0 7.5-3.358 7.5-7.5s-3.357-7.5-7.5-7.5h-5.387c-8.045 0-14.591 6.545-14.591 14.591v57.772c0 8.045 6.546 14.591 14.591 14.591h40.317l14.631 14.631c3.088 3.087 7.142 4.631 11.197 4.63 4.055 0 8.11-1.543 11.196-4.63l55.888-55.886c8.868-8.869 8.868-23.299 0-32.169-4.297-4.296-10.009-6.663-16.085-6.663s-11.788 2.366-16.085 6.663l-28.696 28.697v-27.637c0-8.046-6.546-14.591-14.592-14.591h-17.552c-4.143 0-7.5 3.358-7.5 7.5s3.357 7.5 7.5 7.5h17.145v25.128c-8.882-6.366-21.341-5.586-29.315 2.388-8.011 8.012-8.76 20.549-2.297 29.438h-25.343v-56.954h4.978zm33.268 38.122c1.463-1.463 3.408-2.269 5.478-2.269s4.015.806 5.478 2.269l10.607 10.606c1.582 1.585 3.688 2.458 5.928 2.458 2.236 0 4.339-.87 5.926-2.454l39.596-39.596c1.463-1.463 3.408-2.269 5.478-2.269s4.015.806 5.478 2.269c3.021 3.021 3.021 7.936.001 10.956l-55.889 55.885c-.324.325-.855.325-1.18 0l-26.899-26.9c-3.022-3.019-3.022-7.934-.002-10.955z" data-original="#000000" class="active-path" data-old_color="#000000" fill="#212121"/></g></g></g></g></g></g> </svg>
