<?xml version="1.0"?>
<svg xmlns="http://www.w3.org/2000/svg" id="Layer_3" enable-background="new 0 0 64 64" height="512px" viewBox="0 0 64 64" width="512px"><g><g><path d="m62 15h-28.586l-5.707-5.707c-.187-.188-.441-.293-.707-.293h-12c-.197 0-.391.059-.555.168l-8.748 5.832h-3.697c-.553 0-1 .448-1 1v14c0 .552.447 1 1 1h17v7c0 .552.447 1 1 1h42c.553 0 1-.448 1-1v-22c0-.552-.447-1-1-1zm-59 14v-12h3c.197 0 .391-.059.555-.168l8.748-5.832h11.283l4 4h-10.586c-.553 0-1 .448-1 1v8c0 .552.447 1 1 1h7c1.103 0 2 .897 2 2s-.897 2-2 2zm44-2c0 3.309-2.691 6-6 6s-6-2.691-6-6 2.691-6 6-6 6 2.691 6 6zm-.726-6h10.726v12h-10.726c1.667-1.467 2.726-3.61 2.726-6s-1.059-4.533-2.726-6zm-13.274 6c0 2.39 1.059 4.533 2.726 6h-10.726v-2h2c2.206 0 4-1.794 4-4s-1.794-4-4-4h-2v-2h10.726c-1.667 1.467-2.726 3.61-2.726 6zm28 10h-40v-6h2v3c0 .552.447 1 1 1h34c.553 0 1-.448 1-1v-14c0-.552-.447-1-1-1h-34c-.553 0-1 .448-1 1v3h-2v-6h40z" data-original="#000000" class="active-path" data-old_color="#000000" fill="#F18024"/><path d="m62.479 48.123-6.874-3.76c-1.526-.892-3.269-1.363-5.039-1.363h-.245c-.973 0-1.939.142-2.874.421l-7.1 2.13c-1.211.363-2.079 1.356-2.295 2.562l-7.665-6.271c-.664-.542-1.503-.842-2.363-.842h-.292c-2.057 0-3.732 1.674-3.732 3.732 0 1.101.481 2.139 1.322 2.85l12.032 10.181c.18.153.41.237.646.237h15.713l7.757 4.848c.162.101.345.152.53.152.167 0 .334-.042.484-.125.319-.177.516-.511.516-.875v-13c0-.366-.199-.702-.521-.877zm-1.479 12.073-6.47-4.044c-.159-.099-.342-.152-.53-.152h-15.634l-11.753-9.945c-.389-.329-.613-.812-.613-1.323 0-.955.777-1.732 1.732-1.732h.292c.398 0 .788.139 1.098.392l10.245 8.382c.179.146.403.226.633.226h8v-2h-6.706c-.714 0-1.294-.58-1.294-1.293 0-.576.37-1.074.922-1.239l7.1-2.13c.747-.224 1.521-.337 2.3-.337h.245c1.416 0 2.81.377 4.056 1.104l6.377 3.488z" data-original="#000000" class="active-path" data-old_color="#000000" fill="#F18024"/><path d="m47.684 7.949c1.553.518 2.716 1.774 3.113 3.362l.233.932c.112.445.511.757.97.757s.858-.312.97-.757l.233-.932c.397-1.587 1.561-2.844 3.113-3.362.409-.137.684-.519.684-.949s-.275-.812-.684-.949c-1.553-.518-2.716-1.774-3.113-3.362l-.233-.932c-.112-.445-.511-.757-.97-.757s-.858.312-.97.757l-.233.932c-.397 1.587-1.561 2.844-3.113 3.362-.409.137-.684.519-.684.949s.275.812.684.949zm4.316-2.971c.468.793 1.092 1.481 1.837 2.022-.745.541-1.369 1.229-1.837 2.022-.468-.793-1.092-1.481-1.837-2.022.745-.541 1.369-1.229 1.837-2.022z" data-original="#000000" class="active-path" data-old_color="#000000" fill="#F18024"/><path d="m16.316 44.051c-1.553-.518-2.716-1.774-3.113-3.362l-.233-.932c-.112-.445-.511-.757-.97-.757s-.858.312-.97.757l-.233.932c-.397 1.587-1.561 2.844-3.113 3.362-.409.137-.684.519-.684.949s.275.812.684.949c1.553.518 2.716 1.774 3.113 3.362l.233.932c.112.445.511.757.97.757s.858-.312.97-.757l.233-.932c.397-1.587 1.561-2.844 3.113-3.362.409-.137.684-.519.684-.949s-.275-.812-.684-.949zm-4.316 2.971c-.468-.794-1.092-1.481-1.837-2.022.745-.541 1.369-1.229 1.837-2.022.468.794 1.092 1.481 1.837 2.022-.745.541-1.369 1.229-1.837 2.022z" data-original="#000000" class="active-path" data-old_color="#000000" fill="#F18024"/></g></g> </svg>
